<?xml version="1.0" encoding="UTF-8" standalone="no"?>
<!DOCTYPE svg PUBLIC "-//W3C//DTD SVG 20010904//EN"
              "http://www.w3.org/TR/2001/REC-SVG-20010904/DTD/svg10.dtd">

<svg xmlns="http://www.w3.org/2000/svg"
     width="7.11111in" height="7.11111in"
     viewBox="0 0 512 512">
  <path id="選択範囲 #1"
        fill="none" stroke="black" stroke-width="1"
        d="M 3.00,3.00
           C 3.00,3.00 509.00,3.00 509.00,3.00
             509.00,3.00 509.00,509.00 509.00,509.00
             509.00,509.00 3.00,509.00 3.00,509.00
             3.00,509.00 3.00,3.00 3.00,3.00 Z
           M 243.00,128.00
           C 243.00,128.00 243.00,101.00 243.00,101.00
             243.00,98.59 243.40,92.40 241.98,90.60
             240.41,88.62 236.30,89.00 234.00,89.00
             234.00,89.00 97.00,89.00 97.00,89.00
             93.34,89.01 90.37,88.59 87.52,91.31
             87.52,91.31 67.67,121.00 67.67,121.00
             63.55,127.17 60.13,130.33 60.00,138.00
             60.00,138.00 60.00,146.00 60.00,146.00
             60.02,156.48 64.64,161.07 69.72,170.00
             69.72,170.00 92.00,209.00 92.00,209.00
             92.00,209.00 123.80,264.00 123.80,264.00
             128.72,272.20 131.33,282.01 143.00,276.47
             143.00,276.47 158.00,267.72 158.00,267.72
             160.09,266.52 163.40,264.90 164.43,262.62
             166.18,258.73 162.44,249.29 161.37,245.00
             158.95,235.27 158.00,222.96 159.43,213.00
             164.27,179.30 184.55,151.98 215.00,136.75
             224.00,132.25 232.87,128.83 243.00,128.00 Z
           M 269.00,128.00
           C 283.08,128.66 302.10,138.12 313.00,146.81
             318.42,151.12 324.22,155.84 328.83,161.00
             344.74,178.80 353.27,203.28 353.00,227.00
             352.91,234.67 350.93,242.65 348.86,250.00
             347.91,253.39 346.08,259.29 347.57,262.67
             348.66,265.14 351.77,266.56 354.00,267.85
             354.00,267.85 371.00,277.73 371.00,277.73
             380.51,282.07 384.30,270.52 388.20,264.00
             388.20,264.00 419.60,209.00 419.60,209.00
             419.60,209.00 442.42,169.00 442.42,169.00
             447.09,160.85 451.95,155.59 452.00,146.00
             452.00,146.00 452.00,137.00 452.00,137.00
             451.86,128.68 444.88,120.85 440.33,114.00
             440.33,114.00 429.67,98.00 429.67,98.00
             428.28,95.92 425.45,91.24 423.48,89.99
             421.53,88.75 418.26,89.00 416.00,89.00
             416.00,89.00 322.00,89.00 322.00,89.00
             322.00,89.00 276.00,89.00 276.00,89.00
             268.51,89.14 269.01,91.26 269.00,98.00
             269.00,98.00 269.00,128.00 269.00,128.00 Z
           M 137.00,270.00
           C 137.00,270.00 107.58,219.00 107.58,219.00
             107.58,219.00 81.86,175.00 81.86,175.00
             81.86,175.00 70.58,155.00 70.58,155.00
             67.53,149.74 64.67,145.39 66.51,139.00
             67.46,135.69 72.84,128.24 75.00,125.00
             75.00,125.00 88.00,105.00 88.00,105.00
             89.71,102.44 92.61,97.49 95.18,96.02
             97.34,94.79 100.56,95.00 103.00,95.00
             103.00,95.00 183.00,95.00 183.00,95.00
             183.00,95.00 230.00,95.00 230.00,95.00
             237.49,95.14 236.99,97.26 237.00,104.00
             237.00,104.00 237.00,122.00 237.00,122.00
             226.87,122.83 218.00,126.25 209.00,130.75
             178.55,145.98 158.27,173.30 153.43,207.00
             151.58,219.86 151.88,233.22 154.26,246.00
             154.26,246.00 157.00,259.00 157.00,259.00
             157.00,259.00 137.00,270.00 137.00,270.00 Z
           M 275.00,122.00
           C 275.00,122.00 275.00,102.00 275.00,102.00
             275.04,100.05 274.90,97.37 276.60,96.02
             278.19,94.77 282.01,95.00 284.00,95.00
             284.00,95.00 410.00,95.00 410.00,95.00
             412.26,95.00 415.53,94.75 417.48,95.99
             419.60,97.34 423.43,103.65 425.00,106.00
             425.00,106.00 440.19,129.00 440.19,129.00
             443.95,134.52 446.97,137.86 445.78,145.00
             445.12,148.99 441.37,154.33 439.28,158.00
             439.28,158.00 424.00,185.00 424.00,185.00
             424.00,185.00 375.00,270.00 375.00,270.00
             371.55,268.46 357.65,261.29 356.04,258.61
             354.31,255.75 356.75,249.33 357.39,246.00
             359.55,234.73 359.02,228.23 359.00,217.00
             358.95,182.09 337.02,149.42 307.00,132.73
             298.28,127.89 284.99,122.47 275.00,122.00 Z
           M 157.00,161.00
           C 156.99,149.16 154.85,149.79 148.59,140.00
             148.59,140.00 131.00,114.00 131.00,114.00
             127.80,109.49 123.59,99.90 117.04,101.33
             112.61,102.30 107.84,111.24 105.33,115.00
             105.33,115.00 90.31,138.00 90.31,138.00
             84.08,147.67 81.01,148.27 81.00,160.00
             81.00,160.00 101.00,161.00 101.00,161.00
             101.00,161.00 157.00,161.00 157.00,161.00 Z
           M 431.00,161.00
           C 430.99,148.46 429.26,150.27 422.81,140.00
             422.81,140.00 405.67,114.00 405.67,114.00
             402.77,109.66 398.88,101.14 393.02,101.11
             387.73,101.08 383.60,109.94 380.71,114.00
             380.71,114.00 363.31,140.00 363.31,140.00
             357.81,148.54 355.04,149.55 355.00,160.00
             355.00,160.00 376.00,161.00 376.00,161.00
             376.00,161.00 431.00,161.00 431.00,161.00 Z
           M 118.00,111.00
           C 118.00,111.00 132.67,131.00 132.67,131.00
             132.67,131.00 148.00,155.00 148.00,155.00
             148.00,155.00 107.00,155.00 107.00,155.00
             107.00,155.00 90.00,154.00 90.00,154.00
             90.00,154.00 118.00,111.00 118.00,111.00 Z
           M 393.00,111.00
           C 393.00,111.00 407.67,132.00 407.67,132.00
             407.67,132.00 422.00,155.00 422.00,155.00
             422.00,155.00 382.00,155.00 382.00,155.00
             382.00,155.00 365.00,154.00 365.00,154.00
             368.50,144.84 386.59,120.52 393.00,111.00 Z
           M 175.00,286.49
           C 169.54,288.28 161.34,293.34 156.00,296.30
             153.51,297.68 150.10,299.24 149.30,302.21
             147.51,308.82 158.43,324.05 162.00,330.00
             162.00,330.00 186.43,373.00 186.43,373.00
             186.43,373.00 203.00,401.00 203.00,401.00
             203.00,401.00 220.58,432.00 220.58,432.00
             224.34,438.55 224.84,442.84 233.00,443.00
             233.00,443.00 277.00,443.00 277.00,443.00
             279.31,443.00 282.63,443.22 284.62,441.98
             287.62,440.10 295.59,424.96 297.85,421.00
             297.85,421.00 337.42,352.00 337.42,352.00
             337.42,352.00 358.40,316.00 358.40,316.00
             360.63,312.22 364.94,304.99 362.01,300.61
             360.67,298.61 356.18,296.41 354.00,295.23
             347.59,291.75 337.44,283.87 330.00,286.60
             330.00,286.60 311.00,302.28 311.00,302.28
             296.80,312.22 275.50,320.79 258.00,321.00
             237.88,321.23 219.76,314.94 203.00,303.92
             198.68,301.08 192.85,296.33 189.00,292.83
             187.07,291.08 183.95,287.50 181.72,286.49
             179.59,285.70 177.19,286.10 175.00,286.49 Z
           M 157.00,305.00
           C 160.56,303.12 174.01,294.99 177.00,295.23
             179.61,295.45 182.08,298.08 184.00,299.72
             188.50,303.56 193.00,307.38 198.00,310.56
             212.45,319.77 230.69,326.97 248.00,327.00
             248.00,327.00 262.00,327.00 262.00,327.00
             279.81,326.97 297.98,320.26 313.00,310.94
             324.27,303.94 327.65,298.72 331.00,296.33
             332.32,295.39 333.32,294.77 335.00,294.81
             337.46,294.86 351.67,303.24 355.00,305.00
             355.00,305.00 339.86,331.00 339.86,331.00
             339.86,331.00 297.00,406.00 297.00,406.00
             297.00,406.00 284.99,427.00 284.99,427.00
             284.99,427.00 278.62,435.98 278.62,435.98
             278.62,435.98 271.00,437.00 271.00,437.00
             271.00,437.00 241.00,437.00 241.00,437.00
             241.00,437.00 233.38,435.98 233.38,435.98
             233.38,435.98 227.15,427.00 227.15,427.00
             227.15,427.00 215.15,406.00 215.15,406.00
             215.15,406.00 175.58,337.00 175.58,337.00
             175.58,337.00 157.00,305.00 157.00,305.00 Z
           M 294.00,402.00
           C 293.99,390.01 290.18,387.77 283.67,378.00
             283.67,378.00 268.42,355.00 268.42,355.00
             265.46,350.81 260.95,341.78 255.09,342.19
             250.57,342.50 245.71,351.44 243.33,355.00
             243.33,355.00 227.33,379.00 227.33,379.00
             221.36,387.96 218.03,389.98 218.00,401.00
             218.00,401.00 254.00,401.00 254.00,401.00
             254.00,401.00 270.00,402.00 270.00,402.00
             270.00,402.00 294.00,402.00 294.00,402.00 Z
           M 227.00,395.00
           C 227.00,395.00 246.00,366.00 246.00,366.00
             249.16,361.26 251.83,355.69 257.00,353.00
             257.00,353.00 285.00,395.96 285.00,395.96
             285.00,395.96 272.00,395.96 272.00,395.96
             272.00,395.96 260.00,395.00 260.00,395.00
             260.00,395.00 227.00,395.00 227.00,395.00 Z" />
</svg>
