<?xml version="1.0" encoding="UTF-8" standalone="no"?>
<!DOCTYPE svg PUBLIC "-//W3C//DTD SVG 20010904//EN"
              "http://www.w3.org/TR/2001/REC-SVG-20010904/DTD/svg10.dtd">

<svg xmlns="http://www.w3.org/2000/svg"
     width="31.3611in" height="15in"
     viewBox="0 0 2258 1080">
  <path id="選択範囲"
        fill="none" stroke="black" stroke-width="1"
        d="M 1819.00,520.00
           C 1815.17,519.01 1814.62,514.40 1812.89,511.00
             1811.37,508.01 1809.72,505.27 1808.92,502.00
             1807.66,498.03 1807.50,484.74 1808.92,481.01
             1810.17,478.30 1812.23,476.36 1814.28,474.35
             1821.67,467.08 1828.92,466.02 1839.00,466.00
             1839.00,466.00 1972.00,466.00 1972.00,466.00
             1982.92,466.02 1989.70,466.84 1997.52,474.99
             1999.24,476.77 2001.30,478.84 2002.17,481.18
             2003.36,484.38 2003.04,494.14 2003.00,498.00
             2002.89,507.07 2000.14,505.90 2000.00,512.00
             1996.51,513.15 1995.02,516.92 1993.28,520.00
             1989.58,526.57 1985.52,533.91 1983.00,541.00
             1983.00,541.00 1981.00,540.00 1981.00,540.00
             1981.00,540.00 1980.00,547.00 1980.00,547.00
             1980.00,547.00 1974.31,554.00 1974.31,554.00
             1974.31,554.00 1965.00,573.00 1965.00,573.00
             1965.00,573.00 1963.00,572.00 1963.00,572.00
             1963.00,572.00 1959.00,584.00 1959.00,584.00
             1959.00,584.00 1957.00,583.00 1957.00,583.00
             1957.00,583.00 1956.00,589.00 1956.00,589.00
             1952.20,592.32 1948.72,599.01 1948.00,604.00
             1944.96,605.19 1943.41,609.28 1941.76,612.00
             1938.17,617.94 1928.97,632.91 1928.00,639.00
             1922.71,640.44 1918.47,646.86 1907.00,647.81
             1899.06,648.47 1888.81,644.18 1884.08,637.71
             1884.08,637.71 1874.58,621.00 1874.58,621.00
             1874.58,621.00 1854.29,584.28 1854.29,584.28
             1848.52,573.34 1840.03,562.76 1836.00,551.00
             1836.00,551.00 1834.00,552.00 1834.00,552.00
             1834.00,552.00 1829.00,538.00 1829.00,538.00
             1829.00,538.00 1827.00,539.00 1827.00,539.00
             1827.00,539.00 1819.00,520.00 1819.00,520.00 Z
           M 1984.00,474.00
           C 1982.73,470.16 1976.37,471.01 1973.00,471.00
             1973.00,471.00 1949.00,471.00 1949.00,471.00
             1949.00,471.00 1838.00,471.00 1838.00,471.00
             1826.93,471.02 1817.93,475.09 1813.75,486.00
             1811.73,491.28 1810.56,500.50 1817.00,503.00
             1814.40,492.31 1817.26,479.48 1829.00,475.79
             1836.74,473.37 1848.71,474.00 1857.00,474.00
             1857.00,474.00 1903.00,474.00 1903.00,474.00
             1903.00,474.00 1903.00,506.00 1903.00,506.00
             1888.33,506.33 1874.19,517.46 1869.06,531.00
             1865.76,539.75 1867.77,542.45 1866.40,545.91
             1865.17,549.02 1862.26,550.05 1860.00,554.00
             1860.00,554.00 1847.00,557.00 1847.00,557.00
             1847.00,557.00 1836.28,536.91 1836.28,536.91
             1836.28,536.91 1830.00,528.00 1830.00,528.00
             1831.24,534.62 1841.16,550.15 1844.87,557.00
             1844.87,557.00 1866.50,595.04 1866.50,595.04
             1866.50,595.04 1878.41,617.28 1878.41,617.28
             1883.55,626.05 1889.69,640.25 1901.00,642.09
             1902.82,642.43 1905.14,642.19 1907.00,642.09
             1920.32,641.13 1923.38,633.36 1929.27,623.00
             1929.27,623.00 1944.72,595.00 1944.72,595.00
             1948.40,588.55 1954.08,580.02 1956.00,573.00
             1950.64,576.11 1946.60,585.43 1943.71,590.91
             1943.71,590.91 1937.15,602.01 1937.15,602.01
             1937.15,602.01 1923.57,625.00 1923.57,625.00
             1921.44,628.21 1919.41,630.94 1916.00,632.91
             1912.92,634.69 1910.41,634.20 1908.00,637.00
             1899.86,633.67 1896.16,636.13 1889.30,627.91
             1883.88,621.42 1878.36,605.57 1872.00,602.00
             1872.24,596.82 1869.98,595.13 1867.44,590.91
             1867.44,590.91 1857.94,574.00 1857.94,574.00
             1856.51,571.56 1853.15,566.66 1852.78,564.04
             1851.94,558.16 1859.77,559.69 1861.00,554.00
             1861.00,554.00 1868.00,553.00 1868.00,553.00
             1869.02,556.62 1871.47,562.96 1873.64,565.96
             1885.16,581.90 1908.26,587.24 1925.00,576.45
             1929.47,573.58 1934.31,569.48 1937.08,564.91
             1938.52,562.53 1940.92,556.30 1943.27,555.35
             1945.19,554.57 1950.56,556.56 1953.00,557.00
             1953.00,557.00 1952.00,559.00 1952.00,559.00
             1957.73,561.28 1957.92,562.22 1959.00,568.00
             1955.57,568.83 1955.75,569.66 1956.00,573.00
             1959.85,569.60 1960.46,568.05 1961.00,563.00
             1964.22,562.07 1964.30,560.05 1965.00,557.14
             1962.86,557.33 1961.19,557.74 1959.00,557.14
             1955.03,556.42 1945.12,550.70 1943.60,546.91
             1942.50,544.18 1943.96,537.52 1939.65,528.00
             1933.86,515.22 1920.90,506.68 1907.00,506.00
             1907.00,506.00 1907.00,474.00 1907.00,474.00
             1907.00,474.00 1958.00,474.00 1958.00,474.00
             1965.84,474.00 1977.48,473.29 1984.57,476.64
             1992.62,480.44 1991.53,486.37 1996.00,490.00
             1994.13,496.56 1995.56,498.99 1992.03,506.42
             1989.28,512.20 1983.22,518.70 1983.00,525.00
             1983.00,525.00 1979.00,530.00 1979.00,530.00
             1983.19,528.41 1984.76,523.76 1986.93,520.00
             1992.46,510.40 1999.26,500.60 1997.82,489.00
             1997.00,482.42 1991.27,473.47 1984.00,474.00 Z
           M 1900.00,477.00
           C 1900.00,477.00 1846.00,477.00 1846.00,477.00
             1834.00,477.02 1821.06,479.63 1819.36,494.00
             1818.66,499.91 1824.78,508.93 1827.80,514.00
             1827.80,514.00 1850.00,553.00 1850.00,553.00
             1853.04,551.39 1861.32,547.28 1862.98,544.62
             1865.07,541.28 1862.55,538.30 1866.06,529.00
             1871.35,515.03 1884.79,503.74 1900.00,503.00
             1900.00,503.00 1900.00,477.00 1900.00,477.00 Z
           M 1961.00,553.00
           C 1961.00,553.00 1984.42,512.00 1984.42,512.00
             1987.30,506.97 1992.45,498.92 1991.44,493.00
             1989.13,479.36 1976.56,477.02 1965.00,477.00
             1965.00,477.00 1910.00,477.00 1910.00,477.00
             1910.00,477.00 1910.00,503.00 1910.00,503.00
             1924.31,503.70 1937.53,513.99 1943.12,527.00
             1947.22,536.54 1945.31,541.85 1946.57,544.62
             1948.27,548.35 1957.13,552.22 1961.00,553.00 Z
           M 1842.00,508.00
           C 1842.51,501.69 1849.01,493.80 1855.00,491.60
             1856.61,491.01 1858.32,491.06 1860.00,491.00
             1860.00,491.00 1864.00,512.00 1864.00,512.00
             1864.00,512.00 1842.00,508.00 1842.00,508.00 Z
           M 1947.00,512.00
           C 1947.01,507.81 1948.07,493.39 1952.30,491.62
             1957.53,489.42 1969.61,501.54 1967.41,506.57
             1966.53,508.59 1963.90,509.11 1962.00,509.62
             1955.84,511.29 1953.42,511.94 1947.00,512.00 Z
           M 1857.00,496.00
           C 1857.00,496.00 1855.00,496.00 1855.00,496.00
             1855.00,496.00 1848.00,505.00 1848.00,505.00
             1852.42,506.63 1855.24,507.68 1860.00,507.00
             1860.00,507.00 1857.00,496.00 1857.00,496.00 Z
           M 1963.00,505.00
           C 1960.68,500.28 1957.99,497.72 1953.00,496.00
             1952.68,498.27 1950.89,504.70 1952.11,506.36
             1953.91,508.83 1960.74,505.85 1963.00,505.00 Z
           M 1856.00,500.00
           C 1856.00,500.00 1857.00,500.00 1857.00,500.00
             1857.00,500.00 1856.00,501.00 1856.00,501.00
             1856.00,501.00 1856.00,500.00 1856.00,500.00 Z
           M 1817.00,504.00
           C 1817.00,504.00 1816.00,504.00 1816.00,504.00
             1816.00,504.00 1817.00,505.00 1817.00,505.00
             1817.00,505.00 1817.00,504.00 1817.00,504.00 Z
           M 1818.00,505.00
           C 1817.40,508.62 1818.45,509.57 1821.00,512.00
             1821.00,512.00 1818.00,505.00 1818.00,505.00 Z
           M 1822.00,513.00
           C 1821.74,516.96 1823.16,518.45 1826.00,521.00
             1826.00,521.00 1822.00,513.00 1822.00,513.00 Z
           M 1902.00,518.72
           C 1909.20,517.20 1912.65,520.26 1918.42,523.91
             1921.37,525.77 1927.36,528.06 1929.15,530.39
             1931.13,532.99 1930.98,536.89 1931.00,540.00
             1931.02,544.51 1931.50,556.01 1929.52,559.61
             1927.94,562.48 1920.05,566.46 1917.00,568.22
             1912.82,570.65 1909.12,573.42 1904.00,572.77
             1899.77,572.24 1891.00,566.59 1887.00,564.22
             1884.50,562.74 1882.11,561.69 1880.89,558.87
             1879.56,555.81 1879.95,543.03 1880.00,539.00
             1880.04,536.70 1879.99,534.25 1881.17,532.18
             1882.97,529.05 1898.21,520.45 1902.00,518.72 Z
           M 1828.00,521.00
           C 1826.12,524.46 1827.39,525.44 1830.00,528.00
             1830.00,528.00 1828.00,521.00 1828.00,521.00 Z
           M 1914.00,529.00
           C 1909.10,521.21 1902.43,523.06 1897.00,529.00
             1906.03,526.65 1904.87,526.16 1914.00,529.00 Z
           M 1915.00,529.00
           C 1915.00,529.00 1914.00,530.00 1914.00,530.00
             1916.48,531.23 1920.50,532.94 1921.98,535.34
             1923.01,537.02 1922.96,539.10 1923.00,541.00
             1923.05,543.69 1923.28,552.76 1922.40,554.79
             1921.08,557.84 1909.33,564.51 1906.00,564.57
             1902.99,564.62 1898.65,562.06 1896.00,560.63
             1893.23,559.12 1889.98,557.71 1888.43,554.81
             1886.82,551.80 1886.96,546.41 1887.00,543.00
             1887.05,538.79 1887.27,538.05 1888.00,534.00
             1883.32,536.81 1883.95,539.98 1884.00,545.00
             1884.14,558.11 1886.29,557.64 1897.00,563.72
             1899.97,565.40 1903.46,567.98 1907.00,567.20
             1910.09,566.52 1924.07,558.25 1925.52,555.61
             1927.77,551.50 1927.70,537.17 1924.42,533.64
             1922.49,531.58 1917.69,529.90 1915.00,529.00 Z
           M 1894.00,531.00
           C 1894.00,531.00 1888.00,534.00 1888.00,534.00
             1888.00,534.00 1894.00,531.00 1894.00,531.00 Z
           M 1907.00,531.00
           C 1903.26,532.07 1901.35,533.06 1898.00,535.00
             1895.73,536.32 1892.87,537.70 1891.74,540.21
             1891.02,541.80 1890.99,544.27 1891.09,546.00
             1891.50,552.64 1893.49,553.67 1899.00,556.63
             1900.59,557.48 1903.17,558.95 1904.96,559.06
             1907.44,559.20 1909.83,557.01 1912.09,555.92
             1914.36,554.83 1917.27,554.10 1918.43,551.61
             1919.16,550.05 1919.03,545.84 1919.00,544.00
             1918.83,534.10 1913.97,537.79 1907.00,531.00 Z
           M 1980.00,531.00
           C 1980.00,531.00 1978.00,531.00 1978.00,531.00
             1975.48,535.38 1971.80,539.82 1972.00,545.00
             1972.00,545.00 1980.00,531.00 1980.00,531.00 Z
           M 1971.00,544.00
           C 1968.20,547.83 1964.93,552.16 1965.00,557.00
             1968.64,553.09 1971.52,549.54 1971.00,544.00 Z
           M 1856.00,556.00
           C 1856.00,556.00 1857.00,556.00 1857.00,556.00
             1857.00,556.00 1856.00,557.00 1856.00,557.00
             1856.00,557.00 1856.00,556.00 1856.00,556.00 Z
           M 1866.00,558.00
           C 1866.00,558.00 1856.00,563.00 1856.00,563.00
             1856.00,563.00 1887.00,617.00 1887.00,617.00
             1891.42,624.67 1896.87,632.82 1907.00,631.80
             1915.92,630.91 1920.51,622.99 1924.58,616.00
             1924.58,616.00 1954.00,564.00 1954.00,564.00
             1954.00,564.00 1944.00,559.00 1944.00,559.00
             1939.33,569.78 1933.09,577.36 1922.00,582.12
             1914.42,585.38 1908.99,585.09 1901.00,585.00
             1885.52,584.81 1870.22,572.81 1866.00,558.00 Z
           M 1894.25,610.00
           C 1894.05,608.27 1894.03,606.70 1894.25,605.00
             1895.48,601.41 1900.82,591.27 1905.00,591.27
             1909.18,591.27 1914.52,601.41 1915.75,605.00
             1915.97,606.70 1915.95,608.27 1915.75,610.00
             1915.75,610.00 1894.25,610.00 1894.25,610.00 Z
           M 1906.00,596.00
           C 1906.00,596.00 1904.00,596.00 1904.00,596.00
             1904.00,596.00 1899.00,606.00 1899.00,606.00
             1903.57,607.30 1906.43,607.30 1911.00,606.00
             1911.00,606.00 1906.00,596.00 1906.00,596.00 Z
           M 1934.00,610.00
           C 1934.00,610.00 1935.00,610.00 1935.00,610.00
             1935.00,610.00 1934.00,611.00 1934.00,611.00
             1934.00,611.00 1934.00,610.00 1934.00,610.00 Z" />
</svg>
